<?xml version="1.0" standalone="no"?>
<!DOCTYPE svg PUBLIC "-//W3C//DTD SVG 20010904//EN"
 "http://www.w3.org/TR/2001/REC-SVG-20010904/DTD/svg10.dtd">
<svg version="1.0" xmlns="http://www.w3.org/2000/svg"
 width="969.000000pt" height="969.000000pt" viewBox="0 0 969.000000 969.000000"
 preserveAspectRatio="xMidYMid meet">
<metadata>
Created by potrace 1.14, written by Peter Selinger 2001-2017
</metadata>
<g transform="translate(0.000000,969.000000) scale(0.100000,-0.100000)"
fill="#000000" stroke="none">
<path d="M4813 9646 c-6 -8 -9 -16 -6 -19 8 -8 -20 -3 -36 7 -9 6 -12 5 -8 -1
4 -7 -14 -10 -53 -8 -33 1 -60 -2 -60 -7 0 -5 -6 -6 -12 -1 -18 11 -42 10 -50
-2 -5 -6 -8 -4 -8 4 0 11 -4 9 -15 -5 -8 -11 -15 -14 -15 -6 0 6 -9 12 -21 12
-13 0 -18 -4 -13 -12 5 -8 0 -7 -11 2 -15 12 -17 12 -10 1 6 -11 2 -13 -19 -9
-14 3 -26 2 -26 -1 0 -3 -19 -5 -42 -4 -24 1 -43 2 -43 3 0 1 -10 3 -23 4 -13
2 -27 -4 -32 -13 -6 -11 -9 -12 -10 -3 0 7 -5 10 -10 7 -6 -4 -8 -10 -6 -14 3
-4 -5 -7 -17 -8 -12 0 -16 1 -9 4 6 3 12 9 12 13 0 5 -12 3 -26 -5 -15 -7 -33
-11 -42 -8 -11 5 -13 3 -7 -8 8 -12 6 -12 -8 0 -14 11 -17 11 -17 0 -1 -9 -5
-8 -15 5 -15 20 -15 20 -15 0 0 -10 -4 -15 -8 -9 -4 6 -13 11 -21 13 -12 3
-12 1 -1 -13 12 -15 11 -15 -14 -3 -24 10 -30 10 -41 -5 -16 -22 -25 -22 -25
1 -1 16 -1 16 -11 0 -7 -12 -19 -16 -45 -13 -28 2 -34 0 -30 -12 4 -9 2 -11
-7 -6 -21 13 -39 13 -28 0 7 -9 -3 -12 -37 -12 -26 1 -50 -4 -54 -10 -5 -6 -8
-6 -8 3 0 6 -5 12 -11 12 -6 0 -8 -7 -5 -16 5 -14 4 -15 -9 -4 -12 10 -15 10
-15 0 0 -8 -3 -10 -7 -7 -3 4 -12 2 -20 -4 -10 -9 -13 -8 -13 2 0 11 -2 11
-10 -1 -7 -11 -10 -11 -10 -2 0 8 -8 6 -22 -7 -17 -17 -24 -18 -37 -8 -12 9
-13 9 -7 0 4 -8 1 -13 -8 -13 -9 0 -16 -6 -16 -12 0 -9 -4 -8 -10 2 -6 10 -10
11 -10 3 0 -7 -5 -13 -11 -13 -5 0 -7 6 -4 13 4 6 1 5 -7 -4 -7 -9 -21 -15
-31 -13 -12 2 -17 -2 -13 -11 3 -9 -2 -12 -16 -10 -11 3 -34 -5 -51 -17 -29
-21 -30 -21 -24 -2 7 19 7 19 -8 0 -8 -11 -15 -25 -15 -30 0 -6 -5 -4 -11 4
-8 11 -12 12 -16 3 -2 -7 -9 -13 -14 -13 -6 0 -7 6 -4 13 4 6 0 4 -8 -5 -8
-10 -17 -15 -20 -11 -4 3 -7 -2 -8 -13 0 -18 -1 -18 -8 0 -6 16 -9 17 -22 4
-8 -8 -20 -13 -28 -10 -8 3 -11 0 -7 -7 5 -7 -3 -11 -21 -11 -42 0 -74 -11
-67 -22 4 -6 -3 -5 -15 1 -17 9 -21 9 -19 -1 2 -7 -5 -12 -14 -12 -10 1 -18
-4 -18 -10 0 -16 -30 -17 -30 -2 0 6 -7 2 -15 -8 -8 -11 -28 -19 -45 -20 -18
-1 -28 -6 -26 -13 3 -7 -5 -10 -20 -8 -16 1 -24 -3 -25 -14 0 -10 -2 -12 -6
-3 -2 6 -9 12 -14 12 -6 0 -7 -4 -4 -10 3 -5 1 -11 -4 -11 -6 -1 -15 -3 -21
-4 -5 -1 -15 -3 -21 -4 -6 0 -9 -8 -6 -15 4 -10 1 -13 -8 -9 -8 3 -12 10 -9
17 3 6 -2 2 -11 -9 -9 -11 -23 -19 -32 -17 -8 2 -12 -1 -8 -7 3 -7 0 -8 -9 -5
-9 3 -16 1 -16 -6 0 -6 -4 -9 -9 -5 -5 3 -13 0 -16 -6 -4 -5 -13 -8 -21 -5 -8
3 -14 -1 -14 -9 0 -8 -5 -15 -11 -15 -5 0 -7 5 -4 11 4 6 -2 5 -14 -3 -12 -7
-21 -17 -21 -23 0 -5 -5 -3 -10 5 -8 13 -10 13 -10 -1 0 -9 -7 -19 -15 -23 -8
-3 -15 -1 -15 5 0 6 -5 7 -10 4 -6 -4 -8 -10 -5 -15 3 -4 -5 -6 -17 -2 -17 4
-20 2 -14 -13 5 -15 4 -16 -9 -5 -12 10 -16 9 -21 -4 -5 -12 -10 -14 -19 -6
-10 8 -16 7 -23 -7 -6 -10 -12 -17 -14 -16 -2 1 -14 0 -26 -4 -18 -4 -21 -8
-10 -15 9 -7 5 -8 -14 -5 -17 2 -25 0 -21 -6 4 -6 0 -8 -10 -4 -9 3 -19 1 -23
-5 -5 -7 -2 -8 7 -3 12 8 12 6 0 -8 -9 -12 -18 -14 -30 -7 -13 6 -18 5 -18 -5
0 -8 5 -11 10 -8 6 4 7 1 3 -6 -5 -7 -14 -10 -22 -7 -9 3 -14 -1 -14 -12 0
-15 -2 -15 -10 -2 -8 13 -10 12 -10 -3 0 -11 -4 -15 -12 -11 -7 5 -9 2 -5 -9
4 -11 2 -14 -8 -10 -8 3 -12 10 -8 16 3 6 1 7 -6 3 -6 -4 -9 -12 -6 -17 6 -8
-50 -26 -67 -21 -4 1 -5 -4 -2 -11 3 -9 -4 -13 -23 -11 -16 1 -39 -7 -52 -17
-13 -11 -20 -19 -16 -19 4 0 2 -7 -5 -15 -10 -12 -16 -13 -26 -4 -11 9 -14 8
-14 -5 0 -14 -11 -20 -26 -13 -3 1 -12 -9 -21 -23 -10 -18 -13 -19 -9 -5 6 19
5 19 -8 1 -8 -10 -19 -15 -25 -11 -7 4 -8 0 -4 -11 5 -14 3 -16 -11 -11 -11 5
-15 3 -10 -4 4 -7 1 -10 -7 -7 -18 7 -49 -20 -43 -37 4 -10 -1 -12 -15 -8 -13
3 -21 1 -21 -6 0 -7 5 -9 12 -5 6 4 8 3 4 -4 -3 -6 -15 -9 -26 -7 -13 2 -20
-2 -20 -11 0 -8 -7 -14 -16 -14 -11 0 -15 -6 -11 -19 3 -14 1 -18 -9 -14 -8 3
-14 0 -14 -6 0 -6 -5 -11 -11 -11 -5 0 -7 5 -3 12 4 7 3 8 -4 4 -7 -4 -12 -16
-12 -26 0 -14 -5 -18 -17 -13 -16 6 -17 5 -3 -12 9 -11 10 -16 3 -11 -9 5 -13
0 -13 -16 0 -16 -3 -19 -9 -10 -4 8 -12 14 -16 14 -12 0 -27 -31 -20 -42 3 -6
-1 -7 -9 -4 -11 4 -16 0 -16 -12 0 -11 -4 -15 -8 -9 -8 12 -37 13 -49 2 -4 -5
-3 -8 2 -7 19 4 35 0 35 -9 0 -5 -12 -8 -27 -5 -23 4 -25 3 -13 -11 11 -13 10
-14 -5 -9 -13 5 -16 4 -11 -4 4 -8 2 -10 -7 -6 -9 3 -16 -3 -20 -16 -3 -11
-11 -19 -18 -18 -7 2 -13 -2 -14 -9 0 -18 -19 -34 -42 -36 -11 0 -20 -8 -19
-17 1 -9 -6 -14 -17 -13 -12 1 -17 -4 -13 -14 3 -8 1 -11 -4 -8 -6 3 -10 1
-10 -5 0 -6 -5 -8 -12 -4 -8 5 -9 2 -5 -10 5 -12 2 -16 -10 -14 -10 2 -24 -11
-36 -34 -11 -21 -23 -36 -25 -33 -3 2 1 13 9 22 12 16 11 17 -4 3 -9 -8 -18
-26 -20 -40 -4 -23 -14 -28 -27 -13 -3 4 1 3 9 -2 10 -5 12 -4 7 4 -11 16 -26
3 -19 -16 5 -12 3 -14 -8 -8 -12 8 -12 6 -1 -8 12 -14 11 -16 -7 -12 -11 2
-24 -1 -27 -7 -4 -7 -2 -8 4 -4 7 4 12 1 12 -9 0 -9 -5 -13 -10 -10 -5 3 -10
1 -10 -5 0 -6 -4 -9 -9 -5 -5 3 -13 0 -17 -6 -4 -7 -3 -9 4 -5 6 4 10 -1 9
-12 -1 -13 -8 -18 -24 -16 -24 2 -32 -11 -10 -19 7 -3 4 -6 -6 -6 -10 -1 -15
-5 -12 -11 3 -5 1 -10 -5 -10 -6 0 -8 -4 -5 -10 3 -5 0 -7 -8 -4 -8 3 -18 0
-23 -7 -4 -8 -3 -10 4 -5 7 4 12 2 12 -3 0 -10 -14 -15 -32 -12 -4 0 -5 -6 -2
-14 4 -8 1 -15 -6 -15 -10 0 -10 -3 0 -15 11 -13 10 -14 -3 -10 -20 8 -33 -15
-16 -27 10 -7 8 -8 -8 -5 -25 5 -40 -7 -23 -18 15 -9 -9 -37 -24 -28 -6 3 -2
-4 9 -18 11 -13 13 -18 5 -11 -17 14 -34 16 -25 2 3 -5 1 -10 -5 -10 -6 0 -8
-5 -4 -12 5 -7 3 -8 -5 -3 -19 11 -74 -45 -60 -61 8 -9 5 -11 -11 -7 -16 4
-19 2 -14 -11 3 -9 11 -13 17 -9 6 3 7 1 3 -6 -6 -9 -11 -9 -21 -1 -9 8 -15 8
-20 0 -3 -5 -1 -10 4 -10 6 0 11 -5 11 -11 0 -6 -7 -8 -16 -5 -15 6 -15 4 -3
-10 13 -16 12 -16 -11 -4 -25 13 -25 13 -7 -7 17 -19 17 -21 0 -34 -9 -8 -14
-9 -10 -2 4 6 2 15 -5 19 -7 4 -10 4 -6 -1 4 -4 2 -15 -5 -23 -8 -11 -8 -14 0
-9 6 4 14 3 18 -3 3 -5 -1 -10 -9 -10 -8 0 -18 -5 -22 -12 -5 -7 -3 -8 5 -3 8
4 7 -2 -3 -17 -9 -14 -13 -28 -9 -33 5 -4 1 -6 -8 -2 -13 4 -16 1 -11 -15 4
-17 2 -20 -11 -15 -12 4 -15 1 -12 -14 3 -16 0 -19 -12 -15 -13 5 -14 4 -4 -8
8 -10 9 -16 1 -21 -5 -3 -10 0 -11 7 0 7 -4 2 -10 -10 -5 -13 -6 -28 -3 -33 3
-5 -5 -13 -18 -18 -13 -6 -17 -10 -10 -10 6 -1 12 -6 12 -12 0 -5 -4 -7 -10
-4 -5 3 -10 -1 -10 -9 0 -8 -9 -20 -20 -26 -17 -9 -18 -14 -9 -32 9 -16 8 -19
-2 -13 -9 6 -10 3 -5 -10 6 -16 4 -16 -10 -4 -16 13 -16 12 -4 -11 13 -24 12
-24 -5 -10 -17 14 -18 14 -5 -10 12 -23 12 -24 -3 -12 -14 12 -16 11 -12 -7 2
-12 -1 -21 -7 -21 -6 0 -5 -7 3 -17 13 -15 12 -15 -9 -4 -23 12 -23 12 -11
-11 12 -22 11 -22 -6 -8 -11 9 -16 10 -11 3 4 -7 3 -13 -3 -13 -5 0 -12 -14
-16 -30 -4 -17 -11 -28 -16 -24 -13 7 -11 -10 2 -23 8 -8 7 -13 -2 -18 -8 -5
-10 -4 -5 3 4 7 2 12 -3 12 -6 0 -11 -7 -11 -16 0 -9 -5 -12 -12 -8 -7 5 -8 3
-3 -5 4 -7 -2 -22 -16 -37 -12 -13 -19 -24 -15 -24 5 0 0 -12 -9 -27 l-18 -28
23 20 23 20 -11 -21 c-6 -12 -8 -24 -4 -28 3 -4 -2 -4 -12 0 -16 6 -18 4 -14
-14 4 -12 2 -20 -3 -16 -5 3 -9 2 -10 -3 -3 -32 -11 -59 -19 -61 -6 -2 -8 -8
-4 -13 3 -5 1 -9 -4 -9 -6 0 -13 -8 -17 -17 -5 -15 -4 -16 6 -5 7 6 17 12 23
12 5 0 -6 -12 -25 -26 -19 -15 -26 -24 -17 -21 10 3 20 1 24 -5 4 -7 3 -8 -4
-4 -7 4 -12 2 -12 -4 0 -6 -5 -8 -12 -4 -9 5 -8 2 1 -9 12 -16 12 -17 -5 -10
-17 6 -18 5 -4 -12 13 -17 13 -18 0 -13 -12 4 -16 -1 -18 -21 -1 -14 -8 -30
-15 -36 -16 -12 -31 -49 -17 -40 6 3 7 -1 4 -9 -3 -9 -11 -13 -18 -9 -6 4 -5
-1 3 -10 12 -15 12 -17 -2 -11 -16 6 -18 -10 -4 -33 6 -9 3 -11 -10 -6 -16 6
-17 5 -3 -12 8 -10 10 -16 3 -12 -12 7 -20 -10 -27 -56 -1 -9 -6 -20 -11 -24
-4 -4 -5 -3 -1 4 3 6 2 14 -3 18 -15 8 -4 -37 11 -48 10 -6 8 -7 -4 -4 -23 8
-31 -4 -12 -18 14 -10 14 -13 -3 -26 -17 -13 -17 -13 -3 6 14 19 14 19 -3 6
-18 -14 -18 -16 -1 -28 16 -11 16 -13 2 -13 -9 0 -20 -5 -24 -12 -4 -7 -3 -8
4 -4 7 4 12 3 12 -2 0 -6 -7 -12 -15 -16 -8 -3 -15 -11 -15 -18 0 -9 3 -9 11
2 8 11 8 9 3 -10 -4 -14 -8 -32 -8 -41 0 -9 -7 -16 -16 -15 -9 1 -15 -7 -14
-21 0 -12 -4 -19 -9 -16 -6 4 -8 -1 -4 -10 4 -11 1 -17 -8 -17 -9 0 -12 -6 -8
-17 4 -11 3 -14 -5 -9 -7 4 -12 2 -12 -3 0 -6 5 -11 11 -11 5 0 7 -5 4 -10 -4
-6 -9 -8 -13 -6 -4 2 -6 -14 -5 -36 1 -33 -2 -38 -15 -34 -16 6 -16 5 0 -7 15
-12 15 -14 0 -25 -15 -10 -15 -11 3 -5 19 5 18 4 -2 -16 -27 -26 -29 -36 -7
-27 13 5 14 4 6 -7 -7 -8 -9 -17 -5 -21 4 -4 -1 -4 -12 0 -18 7 -18 6 -6 -9 7
-9 9 -17 3 -17 -5 0 -12 -9 -15 -20 -3 -11 0 -20 5 -20 6 0 4 -8 -3 -17 -12
-15 -12 -16 1 -8 12 6 12 5 3 -5 -6 -7 -9 -19 -6 -27 3 -7 2 -13 -3 -11 -5 2
-10 -1 -11 -7 -1 -5 6 -9 15 -8 10 1 11 0 4 -3 -6 -3 -9 -11 -6 -16 4 -6 2 -8
-4 -4 -6 3 -13 2 -17 -4 -3 -5 2 -10 11 -10 16 0 16 -1 -2 -15 -15 -12 -16
-16 -5 -24 11 -7 11 -9 0 -14 -11 -4 -11 -6 -1 -6 10 -1 9 -5 -3 -17 -11 -11
-13 -20 -6 -27 5 -5 7 -16 4 -25 -5 -11 -3 -13 8 -7 8 5 6 0 -4 -12 -14 -16
-15 -22 -5 -26 10 -4 10 -6 -1 -6 -11 -1 -11 -4 -1 -16 11 -13 10 -14 -2 -10
-16 6 -18 -20 -3 -44 5 -10 4 -12 -3 -7 -7 4 -12 1 -12 -9 0 -10 5 -13 13 -9
6 4 3 -3 -7 -15 -15 -16 -16 -20 -5 -16 10 4 16 0 16 -9 0 -8 -6 -12 -15 -8
-11 4 -13 1 -7 -8 4 -7 8 -32 7 -54 -1 -32 1 -38 9 -26 9 12 10 12 5 -3 -3
-10 -6 -21 -6 -23 0 -3 -4 -3 -9 1 -6 3 -6 -7 0 -27 11 -41 11 -41 -4 -32 -6
4 -4 -2 6 -13 14 -16 15 -23 6 -29 -8 -5 -10 -3 -4 6 5 9 4 11 -3 6 -8 -5 -9
-13 -3 -24 6 -11 6 -24 0 -35 -8 -14 -7 -15 8 -10 16 6 16 5 4 -10 -9 -12 -10
-17 -2 -17 7 0 9 -5 6 -10 -4 -6 -11 -8 -16 -5 -5 3 -6 -1 -3 -9 3 -9 9 -14
14 -11 11 7 0 -61 -13 -82 -6 -9 -3 -11 7 -7 16 6 17 -19 1 -33 -4 -4 -5 -2 0
6 5 9 4 12 -3 7 -6 -4 -9 -13 -6 -21 4 -8 11 -12 18 -8 8 5 8 3 0 -8 -19 -25
-24 -59 -7 -59 8 0 11 -5 8 -10 -4 -6 -12 -7 -18 -3 -7 4 -4 -6 7 -21 10 -16
14 -26 8 -22 -5 3 -13 -1 -16 -10 -3 -8 -2 -13 3 -10 11 7 20 -14 14 -32 -3
-6 -10 -10 -16 -6 -7 3 -4 -1 5 -9 10 -8 16 -16 13 -19 -3 -2 -1 -18 4 -35 5
-18 5 -37 -1 -48 -7 -12 -7 -16 0 -11 6 3 13 2 17 -4 3 -5 1 -10 -5 -10 -6 0
-9 -4 -5 -10 3 -5 11 -8 18 -6 7 1 9 1 4 -1 -4 -3 -5 -9 -1 -14 3 -5 -1 -9 -8
-9 -8 0 -6 -5 5 -11 9 -6 14 -15 11 -21 -11 -17 -10 -52 1 -60 6 -5 4 -8 -5
-8 -12 0 -12 -2 -2 -8 10 -7 10 -15 2 -36 -7 -20 -7 -25 2 -20 8 5 9 2 5 -9
-4 -10 1 -21 11 -27 15 -10 14 -11 -6 -7 -15 4 -20 1 -15 -6 4 -7 8 -15 8 -19
0 -3 4 -10 9 -15 5 -4 7 -3 3 3 -3 6 0 11 8 11 13 0 12 -4 -2 -19 -12 -14 -13
-18 -3 -18 11 0 11 -3 2 -12 -9 -9 -8 -16 5 -30 10 -12 12 -18 4 -18 -7 0 -9
-5 -6 -10 4 -6 12 -7 18 -3 7 4 6 0 -2 -10 -10 -13 -10 -17 -1 -17 9 0 9 -4
-1 -17 -12 -14 -12 -16 2 -11 13 5 15 0 9 -30 -4 -27 -1 -41 10 -50 8 -8 9
-11 2 -7 -7 4 -12 0 -12 -10 0 -10 5 -13 12 -9 8 5 7 0 -2 -11 -9 -11 -10 -16
-3 -11 9 5 13 -1 13 -19 0 -17 4 -24 12 -19 7 5 8 3 2 -7 -11 -18 -13 -60 -3
-53 4 2 10 0 14 -6 4 -6 12 -7 18 -3 7 3 3 -3 -7 -15 -14 -16 -15 -22 -6 -22
11 0 11 -3 3 -11 -9 -9 -9 -16 0 -29 8 -14 8 -22 -2 -33 -10 -13 -8 -18 11
-31 17 -12 19 -16 6 -16 -9 0 -20 -5 -23 -10 -4 -6 -1 -9 7 -8 7 2 13 -6 13
-19 0 -12 5 -26 9 -30 5 -5 6 -2 1 7 -5 8 -4 12 0 7 13 -11 15 -38 2 -30 -7 4
-8 0 -4 -11 4 -10 7 -20 7 -22 0 -3 4 -2 10 1 5 3 10 4 10 0 0 -3 -10 -10 -22
-15 -18 -7 -19 -9 -5 -9 15 -1 16 -4 7 -21 -9 -16 -8 -22 5 -27 13 -5 14 -7 3
-14 -10 -7 -10 -9 0 -9 6 0 12 -5 12 -11 0 -5 -6 -7 -13 -3 -6 4 -4 -2 5 -13
21 -23 24 -48 5 -37 -6 4 -3 -3 8 -16 11 -13 15 -20 8 -17 -7 5 -10 1 -8 -10
2 -10 4 -22 4 -26 1 -5 5 -5 11 -2 6 4 7 -1 3 -11 -5 -13 -3 -15 8 -9 12 7 12
6 1 -7 -10 -13 -10 -17 3 -22 13 -4 14 -10 5 -26 -9 -16 -8 -20 5 -20 8 0 15
-5 15 -11 0 -5 -6 -7 -12 -3 -9 6 -9 3 0 -9 8 -9 11 -21 7 -27 -3 -5 -1 -10 5
-10 6 0 8 -5 4 -12 -4 -7 -3 -8 4 -4 7 4 12 1 12 -8 0 -9 5 -16 11 -16 8 0 7
-6 -2 -17 -7 -10 -10 -15 -5 -11 4 4 14 1 21 -5 10 -9 10 -15 1 -26 -8 -12 -8
-13 1 -7 8 4 13 1 13 -9 0 -9 4 -13 10 -10 6 3 11 -5 11 -19 1 -25 3 -36 9
-53 1 -5 2 -11 1 -15 0 -5 6 -8 15 -8 10 0 12 -5 7 -12 -10 -17 -13 -38 -5
-37 4 1 14 1 22 0 13 -1 13 -2 0 -11 -13 -8 -13 -11 -1 -22 10 -10 12 -10 7 0
-10 16 -1 15 13 -2 9 -11 9 -16 0 -22 -8 -5 -9 -3 -4 6 5 8 4 11 -3 6 -6 -4
-9 -13 -6 -21 4 -8 11 -12 17 -8 6 4 8 0 4 -10 -8 -21 2 -49 14 -41 5 3 9 0 9
-5 0 -6 -4 -11 -10 -11 -5 0 -10 -5 -10 -11 0 -6 8 -8 18 -5 15 5 15 5 1 -7
-13 -10 -14 -15 -4 -24 7 -7 16 -9 21 -5 4 4 4 1 0 -5 -4 -7 -13 -13 -21 -13
-8 0 -16 -4 -19 -9 -3 -4 7 -6 22 -4 17 2 21 0 12 -4 -18 -9 -18 -39 -1 -70 7
-14 8 -24 1 -28 -5 -3 -10 -12 -10 -18 0 -7 4 -6 10 3 7 12 10 8 10 -14 0 -28
1 -28 13 -11 11 14 16 15 22 5 5 -9 4 -11 -3 -6 -7 4 -12 1 -12 -8 0 -8 6 -17
13 -20 6 -3 1 -3 -13 0 -17 4 -21 2 -12 -4 8 -5 13 -13 12 -18 -2 -11 32 -23
44 -16 5 3 6 0 2 -6 -4 -7 -15 -12 -24 -12 -15 0 -15 -2 -2 -10 10 -6 16 -6
18 0 2 6 8 10 14 10 6 0 8 -6 5 -14 -6 -16 19 -30 28 -16 3 4 0 10 -6 12 -7 2
-6 8 3 16 12 9 14 8 13 -6 -1 -9 -7 -27 -13 -39 -11 -19 -9 -24 10 -33 21 -10
21 -10 5 3 -15 13 -16 16 -2 27 13 11 14 10 10 -3 -4 -8 -1 -18 4 -22 6 -3 8
-12 4 -18 -4 -7 -8 -18 -9 -25 -2 -10 1 -10 11 -2 20 17 37 2 29 -23 -6 -20
-5 -20 10 -8 9 8 15 20 12 28 -4 8 -1 11 5 8 6 -4 8 -13 5 -20 -3 -8 0 -16 7
-18 7 -2 4 -3 -5 -2 -24 4 -23 -7 2 -23 11 -7 20 -19 20 -27 0 -8 5 -15 11
-15 5 0 7 -4 4 -10 -3 -6 1 -7 9 -4 9 4 18 -1 22 -10 3 -9 13 -16 21 -16 12 0
12 2 -1 16 -24 23 -19 30 5 8 19 -17 19 -19 3 -31 -16 -12 -16 -13 6 -13 13 0
20 -3 17 -7 -9 -9 33 -53 50 -53 12 0 18 -13 14 -34 -1 -5 4 -4 13 3 11 9 16
9 22 0 4 -8 3 -9 -4 -5 -7 4 -12 1 -12 -9 0 -9 4 -13 10 -10 13 8 13 -7 0 -23
-7 -9 -7 -9 2 -2 18 15 28 12 22 -5 -4 -8 -1 -15 5 -15 6 0 10 -6 9 -12 -2 -7
3 -12 10 -10 10 2 11 -4 6 -20 -6 -20 -5 -21 10 -9 9 8 19 11 23 7 3 -3 1 -6
-5 -6 -7 0 -12 -5 -12 -11 0 -6 7 -8 16 -5 15 6 15 4 3 -11 -12 -14 -12 -16 0
-8 11 6 13 4 8 -8 -4 -11 -1 -15 13 -12 20 4 75 -58 75 -85 0 -24 14 -40 31
-33 8 3 14 2 13 -3 -4 -26 2 -36 22 -31 16 4 18 3 8 -9 -9 -11 -9 -14 0 -14 7
0 9 -4 6 -10 -3 -5 3 -10 15 -10 12 0 18 -4 15 -10 -3 -5 -1 -10 6 -10 7 0 9
-8 6 -21 -4 -16 -3 -18 9 -8 11 9 14 7 15 -12 1 -13 1 -28 0 -32 -1 -5 3 -6 8
-3 5 3 7 16 4 29 -2 12 5 4 16 -18 10 -22 17 -44 14 -49 -4 -5 0 -6 8 0 8 4
21 9 29 11 11 1 11 -1 -3 -11 -16 -12 -16 -14 -2 -20 9 -3 13 -2 10 4 -3 6 -1
10 6 10 7 0 9 -8 6 -21 -4 -16 -3 -18 9 -8 14 11 19 2 15 -24 -1 -5 4 -5 11
-1 28 18 40 13 21 -8 -16 -19 -16 -21 -1 -15 21 8 69 -48 61 -72 -4 -14 -3
-14 5 -1 8 10 8 18 0 27 -8 10 -7 12 6 7 9 -3 16 -16 17 -28 0 -20 1 -20 9 -1
7 17 9 17 9 3 1 -18 25 -25 34 -10 2 4 2 1 1 -5 -2 -7 4 -13 12 -13 9 0 12 5
8 13 -5 9 -4 9 6 0 7 -6 20 -9 29 -6 13 4 14 3 1 -5 -8 -6 -17 -9 -20 -7 -4 2
-7 -2 -7 -9 0 -18 35 -15 48 4 9 12 10 11 6 -7 -5 -23 10 -22 43 1 12 8 13 7
4 -3 -17 -19 -5 -51 18 -51 14 0 18 -5 14 -15 -3 -9 3 -19 15 -25 11 -6 16
-16 13 -22 -4 -6 -3 -8 3 -5 5 4 16 -5 23 -18 7 -14 18 -25 23 -25 5 0 4 6 -2
14 -9 10 -7 17 6 27 16 13 17 12 4 -4 -12 -15 -9 -21 11 -18 4 0 4 -7 1 -16
-5 -12 -3 -14 7 -8 8 5 11 4 6 -3 -3 -6 -1 -14 5 -17 5 -4 8 -13 5 -21 -3 -7
0 -16 6 -20 7 -4 8 -3 4 4 -4 7 -2 12 5 12 6 0 9 -8 6 -20 -3 -11 0 -18 7 -17
6 1 10 -4 8 -11 -1 -8 2 -11 8 -7 7 5 8 11 1 19 -7 8 -5 12 8 12 16 0 17 -4
10 -24 -12 -31 -11 -40 2 -22 8 11 12 12 16 3 2 -7 9 -13 14 -13 6 0 22 -12
36 -28 17 -17 24 -21 20 -10 -4 10 -2 18 3 18 6 0 10 -5 10 -11 0 -5 5 -7 10
-4 6 3 10 -4 10 -17 l1 -23 13 24 c11 20 14 21 19 6 10 -25 7 -43 -3 -20 -7
15 -9 16 -9 4 -1 -23 25 -44 35 -28 5 8 3 9 -6 4 -9 -5 -11 -4 -6 4 6 8 12 9
20 2 7 -6 15 -9 18 -6 2 3 5 -1 5 -9 0 -8 -7 -12 -16 -10 -9 3 -6 -1 6 -7 13
-7 23 -16 23 -21 0 -5 4 -6 10 -3 5 3 10 -1 10 -9 0 -9 9 -16 20 -16 11 0 20
-5 20 -11 0 -6 7 -9 15 -5 8 3 19 -3 25 -12 8 -14 11 -14 18 -4 7 11 10 10 16
-3 3 -9 4 -21 1 -25 -3 -5 0 -12 6 -16 8 -4 9 -3 5 4 -4 7 -2 12 3 12 10 0 15
-14 12 -33 0 -4 2 -6 6 -6 21 3 33 -2 27 -13 -5 -7 -3 -8 6 -3 10 6 7 12 -10
25 -17 13 -20 19 -10 25 8 5 11 4 6 -3 -3 -6 3 -13 14 -17 14 -4 20 -14 18
-27 -3 -21 4 -25 64 -30 15 -1 24 -6 22 -10 -5 -8 11 -12 29 -9 5 1 5 -3 2 -9
-5 -8 -14 -6 -30 4 -15 10 -26 12 -30 6 -4 -6 -3 -10 2 -9 4 1 16 -1 26 -6 15
-6 15 -10 5 -24 -11 -14 -11 -14 4 -3 14 11 18 10 28 -8 6 -11 15 -18 20 -15
5 3 11 1 15 -5 3 -5 13 -10 22 -10 8 0 29 -15 45 -33 17 -17 27 -26 23 -19 -3
6 -1 12 4 12 6 0 11 -6 11 -12 0 -9 4 -8 10 2 8 12 10 11 10 -7 0 -14 6 -23
16 -23 11 0 14 -6 10 -18 -6 -16 -5 -16 8 1 13 17 32 24 22 8 -10 -16 18 -30
31 -16 6 7 9 15 6 18 -2 3 3 4 13 3 10 -2 19 -8 20 -15 1 -6 0 -7 -3 -1 -5 12
-23 4 -23 -11 0 -5 10 -9 23 -9 18 0 19 -2 7 -10 -8 -5 -10 -10 -5 -10 6 0 16
5 23 12 9 9 12 9 12 -2 0 -7 3 -10 7 -7 3 4 12 2 19 -4 10 -8 16 -5 25 15 11
24 31 37 28 19 -3 -19 2 -33 12 -33 5 0 8 4 5 8 -3 5 1 9 9 9 8 0 15 -4 15 -9
0 -13 30 -9 30 5 0 6 5 4 11 -5 5 -10 17 -18 25 -18 8 0 13 4 10 8 -3 5 1 9 8
9 9 0 12 -7 8 -16 -5 -14 -4 -14 12 -2 15 13 19 13 26 1 5 -8 6 -19 3 -25 -3
-5 0 -4 8 3 15 14 33 16 25 3 -7 -11 22 -23 37 -14 6 4 8 0 4 -9 -4 -13 0 -15
21 -13 23 2 24 1 9 -10 -16 -11 -16 -13 -2 -19 11 -4 14 -2 9 6 -5 8 -2 9 12
3 10 -4 29 -8 41 -8 12 -1 20 -4 17 -8 -2 -4 -17 -5 -31 -3 -15 3 -25 3 -22
-1 4 -3 16 -7 27 -10 32 -6 63 -25 57 -35 -3 -5 -1 -12 5 -15 6 -4 9 -1 8 6
-2 6 3 14 11 17 9 3 11 0 6 -9 -5 -8 1 -6 12 4 17 14 26 16 41 8 11 -6 21 -8
24 -6 3 3 5 -1 5 -9 0 -12 -4 -12 -24 1 -22 15 -25 14 -38 -3 -7 -10 -11 -21
-8 -24 2 -3 9 3 14 12 6 10 16 15 25 11 13 -5 13 -8 2 -15 -10 -8 -9 -9 4 -4
10 3 20 1 23 -5 4 -5 10 -7 14 -5 16 10 61 14 56 5 -4 -5 -11 -7 -16 -4 -5 4
-9 1 -9 -4 0 -15 40 -14 40 2 0 6 5 4 11 -6 7 -13 7 -22 0 -31 -8 -9 -7 -13 4
-13 8 0 12 4 9 9 -3 4 2 8 11 8 9 0 14 -4 10 -9 -3 -5 4 -12 15 -16 11 -3 20
-11 20 -16 0 -6 4 -7 10 -4 6 3 10 2 10 -3 0 -5 13 -15 30 -22 16 -7 27 -17
23 -23 -4 -6 -1 -7 7 -2 10 6 9 11 -5 22 -11 7 -22 13 -26 13 -4 0 -10 7 -13
16 -5 13 -4 14 7 6 10 -9 17 -8 27 1 11 9 10 7 0 -7 -14 -18 -13 -19 3 -13 10
4 16 3 13 -1 -2 -4 2 -15 9 -25 11 -15 14 -15 18 -3 3 8 1 17 -6 20 -9 3 -9 5
0 5 16 1 43 -27 39 -42 -1 -7 -1 -9 1 -5 3 4 18 1 35 -8 17 -9 27 -11 24 -6
-3 6 1 13 9 16 11 4 15 0 13 -11 -2 -12 4 -18 17 -18 11 0 26 -4 33 -8 6 -5
12 -5 12 0 0 4 5 1 11 -7 9 -13 10 -13 6 0 -2 8 -10 15 -17 15 -7 0 -14 6 -16
13 -1 7 0 8 3 2 2 -5 9 -8 13 -5 5 3 16 -5 24 -17 13 -18 18 -20 28 -9 10 11
10 12 1 7 -9 -5 -11 -2 -6 9 4 13 8 14 14 4 4 -7 5 -17 3 -21 -8 -13 11 -9 25
4 11 11 13 10 8 -5 -4 -10 -3 -16 2 -12 5 3 11 2 14 -2 2 -5 3 -3 1 2 -1 6 8
12 19 13 15 1 17 -2 9 -7 -7 -4 -10 -15 -6 -25 6 -17 8 -16 20 5 7 13 13 18
14 12 0 -7 5 -13 11 -13 5 0 7 5 3 12 -4 7 -3 8 5 4 16 -10 3 -29 -16 -22 -8
4 -11 1 -8 -5 4 -6 13 -8 20 -5 7 2 18 -1 24 -7 13 -13 43 -19 35 -6 -3 5 2 9
11 9 9 0 14 -4 10 -9 -3 -5 0 -13 6 -17 7 -4 9 -3 6 3 -10 15 10 20 81 18 37
-2 62 2 62 8 0 6 3 7 6 4 4 -4 2 -12 -4 -19 -8 -10 -4 -13 18 -14 16 -1 27 4
26 10 -2 6 -1 8 1 3 3 -4 10 -4 15 -1 6 4 8 2 5 -3 -4 -6 0 -13 8 -17 8 -3 17
-1 20 5 4 5 11 7 16 4 5 -4 9 -1 9 6 0 6 9 1 21 -12 11 -13 17 -18 13 -10 -4
9 -2 12 7 9 8 -3 13 -10 12 -16 -3 -14 30 -8 35 6 2 6 10 8 19 5 12 -5 14 -3
8 7 -5 8 7 3 25 -10 18 -13 31 -19 27 -13 -4 6 0 13 8 17 8 3 17 0 21 -6 4 -7
3 -8 -4 -4 -7 4 -12 3 -12 -2 0 -13 73 -11 82 2 5 7 8 7 8 -1 0 -7 5 -13 11
-13 5 0 7 5 4 10 -3 6 -1 10 4 10 6 0 11 -4 11 -10 0 -5 5 -10 11 -10 6 0 8
10 5 23 l-6 22 12 -23 c6 -13 17 -21 25 -18 9 4 11 1 7 -6 -4 -7 -3 -8 4 -4 7
4 12 2 12 -4 0 -7 5 -6 14 2 8 7 12 16 10 20 -2 3 7 1 20 -5 13 -7 22 -16 19
-22 -2 -5 3 -1 11 9 14 18 21 15 17 -7 -1 -5 3 -6 9 -2 6 3 7 12 3 18 -4 7 2
5 12 -3 17 -13 18 -13 11 0 -4 8 0 6 10 -5 13 -16 16 -17 11 -3 -3 10 -1 20 5
24 6 4 8 3 5 -3 -4 -6 1 -17 10 -24 12 -10 14 -10 9 -1 -5 8 1 12 21 12 22 0
25 -2 13 -10 -8 -5 -10 -10 -5 -10 6 0 16 5 23 12 9 9 12 9 12 1 0 -12 30 -10
50 2 6 3 10 -4 11 -17 0 -20 1 -21 8 -4 7 17 8 17 24 2 9 -10 17 -13 17 -8 0
17 29 22 44 7 19 -20 30 -19 22 1 -5 12 -3 14 6 8 7 -5 25 -9 40 -8 15 0 25
-2 23 -6 -9 -15 25 -19 39 -5 13 13 15 12 21 -6 4 -12 10 -17 14 -12 5 9 14
11 54 14 6 0 22 -2 35 -5 19 -4 21 -2 12 14 -8 16 -8 18 5 14 8 -4 15 -10 15
-16 0 -5 7 -3 15 5 8 9 23 14 32 13 10 -2 22 2 26 8 5 6 5 0 1 -14 -6 -20 -4
-23 7 -14 8 6 24 10 37 8 13 -2 21 0 18 5 -9 13 19 7 38 -8 14 -12 16 -12 11
0 -4 11 4 13 40 11 28 -3 43 -8 38 -15 -3 -6 -1 -7 5 -3 7 4 12 14 12 22 0 8
5 14 11 14 5 0 8 -3 6 -7 -3 -5 1 -14 9 -21 8 -7 14 -8 14 -2 0 5 7 10 15 10
8 0 15 5 15 11 0 5 -5 7 -12 3 -7 -5 -8 -3 -3 6 6 10 11 10 20 -3 12 -17 31
-24 21 -9 -2 4 0 14 5 22 8 12 9 11 7 -5 -2 -14 3 -20 19 -21 12 -1 21 2 18 5
-2 4 4 12 14 18 14 9 18 8 18 -3 0 -7 -4 -11 -9 -8 -4 3 -8 0 -8 -5 0 -14 39
-8 49 7 4 7 12 8 21 2 25 -16 35 -11 14 6 -10 8 -14 13 -7 10 6 -4 17 2 23 11
10 15 11 15 6 1 -5 -16 21 -34 32 -23 3 3 0 5 -6 5 -7 0 -12 4 -12 10 0 5 7 6
17 3 10 -4 14 -2 10 4 -8 13 11 12 31 -1 7 -4 16 -5 19 -2 4 3 1 6 -5 6 -7 0
-12 4 -12 8 0 5 10 8 23 8 15 -1 22 4 21 16 -1 11 4 14 14 11 8 -4 21 2 29 13
14 18 15 18 8 -6 l-8 -25 22 19 c22 20 22 20 16 0 -6 -17 -6 -17 5 -1 6 9 8
22 5 27 -4 6 1 7 11 3 13 -5 15 -3 9 7 -5 8 -4 11 3 6 6 -4 9 -13 5 -21 -3 -8
-1 -15 5 -15 5 0 12 10 16 23 5 18 8 20 16 7 8 -13 10 -13 10 1 0 9 6 22 13
28 10 8 14 7 14 -4 0 -8 -3 -12 -7 -10 -4 2 -7 -3 -7 -12 0 -13 4 -12 18 5 9
12 25 22 34 22 9 0 13 4 10 10 -3 6 1 7 9 4 9 -3 13 -11 10 -18 -3 -6 4 0 17
14 13 14 21 21 16 14 -5 -8 1 -10 20 -8 46 7 57 9 81 23 13 7 28 10 35 7 9 -3
9 -5 0 -5 -7 -1 -13 -6 -13 -12 0 -8 4 -8 14 1 8 6 13 17 10 25 -3 7 0 16 7
21 8 4 10 3 5 -4 -5 -8 1 -12 15 -12 16 0 19 3 11 12 -8 10 -3 13 21 13 18 -1
37 -4 43 -7 6 -4 11 -1 11 7 0 8 -4 12 -9 9 -4 -3 -8 0 -8 6 0 6 -4 8 -10 5
-6 -3 -7 1 -3 10 5 14 8 14 15 3 7 -10 11 -10 15 0 6 16 23 16 19 0 -1 -7 -1
-10 1 -6 2 4 12 4 21 1 13 -4 14 -3 3 5 -10 7 -10 11 -1 17 6 4 9 14 5 24 -5
12 -3 13 6 4 9 -9 16 -7 31 10 11 12 17 16 13 10 -10 -20 -15 -57 -7 -49 4 4
7 11 7 14 1 14 26 52 35 52 5 0 11 -8 13 -17 4 -16 5 -16 6 1 1 16 3 17 19 5
16 -13 16 -12 3 4 -13 16 -13 20 -1 27 9 5 20 5 27 -2 10 -8 13 -6 13 6 0 14
3 15 23 5 20 -11 21 -11 9 4 -11 13 -10 15 7 10 12 -3 18 -10 15 -17 -3 -6 1
-3 9 7 15 18 16 18 26 0 8 -14 11 -15 12 -3 1 8 1 18 1 22 -1 3 5 9 14 12 8 3
12 2 9 -4 -3 -6 1 -10 9 -10 19 0 21 11 4 28 -7 7 -8 12 -4 12 5 0 15 -8 22
-17 13 -17 13 -17 14 0 0 9 5 17 11 17 5 0 7 -5 4 -10 -10 -17 7 -11 22 8 8 9
11 11 7 3 -4 -9 -3 -12 4 -7 5 3 13 0 16 -6 3 -7 3 -3 0 10 -5 20 -3 21 22 11
l28 -10 -19 22 -20 22 24 -13 c16 -8 21 -8 16 -1 -4 8 2 10 19 7 15 -3 24 -1
21 3 -2 5 5 20 16 35 11 14 17 31 14 38 -4 7 0 5 8 -4 15 -19 32 -25 22 -8 -3
6 -2 10 4 10 5 0 12 -6 14 -12 3 -7 6 -3 6 10 1 12 6 22 12 22 5 0 8 -4 5 -9
-7 -11 21 -8 31 4 4 4 2 5 -4 1 -9 -5 -13 0 -13 16 0 16 3 19 9 10 12 -19 25
-15 34 11 8 22 8 22 24 2 15 -20 15 -20 8 3 -6 22 1 26 45 23 9 0 10 2 3 5 -7
3 -9 12 -6 20 4 12 8 12 18 -3 13 -17 13 -17 12 1 -1 10 5 21 13 23 13 4 13 3
0 -7 -13 -10 -13 -11 0 -7 8 2 14 11 14 20 -1 10 4 13 14 10 10 -4 13 -2 8 5
-4 7 -2 12 3 12 6 0 11 -5 11 -11 0 -5 5 -7 11 -4 6 4 8 13 5 21 -3 8 -2 13 2
12 15 -3 62 15 62 24 0 5 -4 6 -10 3 -6 -3 -7 1 -3 10 4 13 8 14 14 4 13 -22
37 -19 33 5 -2 11 -2 15 2 9 9 -20 24 -15 17 5 -6 14 -4 15 9 4 12 -10 18 -10
27 2 7 8 20 12 29 9 13 -4 14 -3 3 5 -11 8 -10 12 5 21 11 6 15 11 10 11 -5 0
-17 -7 -26 -15 -14 -13 -17 -13 -17 0 0 8 4 12 9 9 4 -3 11 2 14 11 4 9 13 14
20 11 8 -3 14 1 14 10 0 9 -5 12 -13 8 -6 -4 -2 4 11 18 12 13 19 28 15 33 -5
4 -2 5 5 1 10 -6 10 -11 2 -21 -8 -10 -8 -15 1 -21 7 -4 9 -3 5 4 -3 6 -2 13
4 17 6 4 8 10 5 15 -3 5 -1 12 5 15 8 5 7 12 -2 23 -11 15 -11 15 3 4 13 -10
18 -10 28 1 6 8 9 16 6 19 -3 3 8 4 25 3 26 -2 30 1 24 19 -6 21 -6 21 9 1 14
-18 16 -18 22 -4 4 10 15 15 31 13 15 -1 22 2 17 9 -4 7 0 8 12 3 15 -6 16 -4
4 10 -11 14 -10 16 6 13 11 -2 21 0 22 5 1 5 5 12 10 15 4 3 16 20 25 36 9 17
25 30 35 30 11 0 17 7 17 18 -1 9 4 17 12 17 8 0 14 7 14 15 0 18 26 20 34 3
3 -9 5 -8 4 2 -3 25 13 61 24 54 6 -4 5 -10 -3 -16 -11 -8 -11 -9 1 -5 8 2 14
11 12 20 -2 11 3 15 17 12 15 -3 19 1 16 15 -2 13 7 23 31 35 33 15 49 33 20
22 -10 -4 -13 -1 -9 8 4 11 10 12 23 5 13 -7 21 -7 25 0 4 6 1 9 -6 8 -8 -2
-14 7 -14 23 -1 14 5 26 12 26 6 0 9 -5 6 -10 -3 -6 -1 -7 6 -3 9 6 9 11 1 21
-9 11 -6 12 12 8 19 -5 21 -3 11 8 -19 20 -16 26 18 38 17 6 28 14 25 19 -8
13 9 33 32 35 17 1 19 4 9 16 -10 12 -9 14 5 9 22 -9 29 1 17 23 -7 15 -6 17
6 13 10 -4 15 0 15 10 0 9 8 16 19 16 21 0 55 45 46 60 -3 6 1 10 10 10 10 0
13 -5 9 -12 -4 -7 -3 -8 5 -4 9 6 9 11 -1 24 -11 13 -11 14 1 7 11 -6 13 -4 7
10 -6 15 -4 16 10 4 14 -11 15 -10 12 7 -2 11 2 18 10 16 6 -1 12 6 12 15 0
15 2 16 10 3 8 -13 10 -12 11 5 1 11 1 24 0 28 -1 5 3 6 9 2 5 -3 10 -1 10 5
0 6 11 8 26 6 23 -4 24 -3 12 11 -11 14 -11 16 1 8 11 -6 13 -4 8 8 -4 11 -2
14 9 10 10 -4 12 0 7 13 -6 18 -5 18 18 -1 13 -11 18 -13 12 -5 -7 8 -13 18
-13 23 0 4 6 5 13 1 9 -6 9 -5 -1 8 -10 12 -10 18 2 28 9 6 20 9 27 5 8 -6 8
-2 0 13 -8 16 -7 23 6 33 10 8 14 9 10 2 -4 -6 -3 -14 2 -17 15 -10 6 25 -10
35 -10 8 -8 9 9 4 22 -6 23 -5 13 14 -7 12 -9 22 -6 22 3 1 10 3 15 4 6 1 15
3 21 4 8 1 8 5 -1 16 -7 8 -17 12 -23 8 -6 -3 -7 -1 -3 5 5 8 13 9 26 2 13 -7
21 -6 30 5 10 12 8 14 -7 10 -12 -2 -20 2 -20 10 0 7 5 11 11 9 15 -5 51 24
41 33 -4 5 -10 2 -12 -4 -6 -15 -29 -17 -38 -3 -3 6 1 7 9 4 9 -4 18 1 22 10
3 9 11 13 17 9 6 -4 8 2 4 16 -5 19 -3 20 11 9 13 -11 14 -11 7 1 -6 11 -4 13
7 8 14 -5 15 -1 8 23 -6 22 -5 28 5 24 8 -3 11 -13 9 -22 -4 -11 -1 -10 6 3 7
11 20 26 29 34 15 13 15 13 -1 8 -10 -4 -18 -2 -18 3 0 6 4 10 9 10 12 0 9 33
-4 42 -6 5 -5 8 4 8 11 0 11 3 0 18 -13 15 -12 16 3 3 10 -7 16 -17 13 -20 -2
-4 2 -8 9 -8 8 0 11 8 8 19 -2 10 -9 18 -14 18 -5 0 -2 7 6 16 9 8 13 20 10
26 -4 7 -2 8 4 4 7 -4 12 -2 12 4 0 6 5 8 12 4 7 -4 8 -3 4 4 -4 7 -2 12 3 12
6 0 11 5 11 11 0 5 -4 8 -9 4 -5 -3 -12 -1 -15 4 -7 11 13 9 31 -2 9 -6 11 -3
7 7 -3 9 -10 16 -15 16 -5 0 -9 5 -9 11 0 8 5 7 15 -1 9 -7 16 -11 18 -9 1 2
13 17 27 33 14 16 19 26 11 21 -11 -6 -13 -4 -8 8 4 12 1 15 -11 11 -15 -5
-15 -4 1 6 9 6 15 17 11 23 -3 7 1 4 9 -6 22 -27 29 -20 10 10 -13 19 -14 25
-4 18 11 -6 13 -4 8 8 -3 9 -2 19 4 23 6 3 8 13 4 21 -4 13 -3 14 9 4 11 -9
16 -9 22 0 4 7 3 9 -3 6 -11 -7 -28 22 -18 31 3 3 5 0 5 -6 0 -7 5 -12 11 -12
5 0 7 5 3 12 -5 7 -2 9 9 5 12 -4 14 -1 11 18 -5 26 10 42 22 24 5 -8 3 -9 -6
-4 -9 5 -11 4 -6 -4 12 -18 25 -3 18 22 -5 20 -4 21 11 8 15 -12 17 -12 11 4
-6 14 -4 16 6 10 10 -6 12 -3 8 13 -4 15 -2 19 8 15 8 -3 14 0 14 6 0 6 -4 11
-10 11 -5 0 -2 8 8 18 9 11 21 17 26 14 5 -3 7 7 4 22 -3 15 -3 24 0 22 2 -3
13 -1 23 4 17 9 19 36 5 59 -4 5 4 7 16 4 23 -5 23 -5 3 11 l-20 16 20 -7 c18
-6 19 -5 5 12 -14 17 -13 18 3 12 11 -4 17 -1 17 9 0 9 -5 12 -12 8 -9 -5 -9
-2 1 9 12 16 8 22 -12 18 -5 -1 -5 3 -2 9 5 8 15 6 31 -5 27 -18 28 -21 -8 48
-10 20 -10 21 5 9 17 -14 41 -7 32 9 -4 5 -3 15 2 22 14 22 17 45 10 88 -2 16
1 26 9 26 7 0 10 -5 7 -10 -3 -6 -1 -7 5 -4 11 8 11 25 -1 44 -4 6 -2 15 4 19
8 4 9 3 5 -4 -11 -18 0 -14 15 5 10 11 10 14 1 9 -14 -8 -12 28 3 41 4 5 5 3
1 -4 -3 -6 -1 -15 6 -19 7 -4 10 -3 5 1 -4 5 0 19 8 31 9 15 11 25 5 29 -6 4
-9 1 -8 -6 2 -6 -4 -14 -12 -16 -12 -4 -12 -3 -2 5 8 5 13 13 13 18 0 5 7 9
17 9 10 0 16 6 14 15 -11 45 -10 55 5 72 8 10 19 15 24 13 4 -3 10 -1 13 4 4
5 1 13 -5 17 -8 5 -9 3 -4 -6 5 -8 4 -11 -3 -6 -15 9 -3 38 12 29 6 -3 8 -3 4
2 -4 4 -2 15 5 23 10 13 9 14 -11 3 -21 -11 -22 -11 -10 8 6 11 17 17 23 15 5
-3 1 2 -10 12 -20 16 -20 16 3 11 14 -3 20 -1 15 6 -10 17 -11 67 0 60 5 -3 7
0 5 8 -3 8 -12 13 -19 11 -11 -3 -11 -1 -2 9 10 10 16 9 30 -2 16 -12 15 -11
-1 9 -19 22 -19 22 0 23 15 1 13 3 -6 9 -16 5 -19 8 -8 9 9 1 20 6 24 13 4 7
3 8 -4 4 -7 -4 -12 -2 -12 3 0 6 6 11 13 11 8 0 7 3 -3 9 -8 6 -19 7 -25 3 -5
-3 -4 2 4 11 16 20 25 23 15 5 -5 -10 -4 -10 5 -2 7 6 13 25 13 42 1 17 4 30
7 27 4 -2 7 5 7 16 0 10 -4 19 -9 19 -4 0 -5 5 -2 10 4 6 12 8 18 4 7 -3 1 4
-13 17 -23 20 -24 21 -3 15 12 -4 24 -2 28 4 4 6 2 9 -3 8 -6 -2 -10 0 -11 5
-3 21 0 27 11 21 7 -4 2 7 -11 24 -12 18 -18 32 -13 32 6 0 12 -7 16 -15 3 -8
11 -15 18 -15 10 0 10 3 -1 9 -8 5 -12 18 -8 30 3 13 1 19 -5 15 -6 -4 -8 -1
-6 7 3 8 11 13 17 11 17 -3 13 15 -5 22 -10 4 -13 2 -8 -6 5 -7 3 -8 -6 -3
-10 6 -8 13 11 28 16 13 18 18 7 14 -21 -7 -23 3 -5 22 10 11 9 12 -2 6 -9 -5
-12 -3 -9 6 3 8 11 13 17 11 7 -1 10 2 6 8 -3 6 -10 8 -15 5 -4 -2 -10 6 -12
19 -4 19 -1 23 11 18 12 -4 11 0 -4 18 l-20 23 22 -12 c19 -10 22 -9 17 4 -4
8 -10 15 -16 15 -5 0 -6 5 -3 10 4 6 11 7 17 4 7 -4 8 -2 4 5 -4 6 -11 9 -16
6 -5 -3 -12 -1 -15 5 -4 6 -3 10 2 9 22 -4 31 3 30 24 0 12 2 29 4 37 3 10 -2
14 -16 12 -19 -3 -19 -3 -2 10 22 17 31 72 11 64 -10 -4 -9 2 3 21 17 26 17
27 0 20 -16 -6 -16 -5 0 20 17 25 17 27 1 21 -12 -5 -15 -3 -11 7 3 8 9 12 14
9 5 -3 9 0 9 5 0 6 -6 11 -12 12 -7 0 -4 4 7 9 16 7 17 9 3 9 -9 1 -20 6 -24
13 -4 7 -3 8 4 4 7 -4 12 -2 12 5 0 7 5 8 13 3 7 -5 6 -2 -3 6 -17 17 -22 71
-5 67 6 -1 11 3 12 8 0 6 -3 9 -8 7 -5 -1 -3 14 5 33 8 19 13 36 10 36 -2 1
-8 2 -13 3 -21 3 -23 16 -3 16 12 0 22 5 22 11 0 5 -4 7 -10 4 -5 -3 -10 -1
-10 5 0 6 -6 8 -12 5 -7 -4 -4 1 6 9 18 15 15 20 -9 17 -5 -1 -1 6 9 14 15 12
16 15 5 15 -9 0 -16 7 -16 15 0 11 4 12 14 3 11 -8 12 -7 7 6 -3 9 -9 16 -13
16 -3 0 -12 9 -19 20 -13 21 -12 21 15 3 26 -16 27 -16 14 0 -7 9 -10 17 -5
17 5 0 3 4 -5 9 -14 9 -16 43 -7 88 3 13 0 26 -6 29 -7 5 -8 2 -3 -6 6 -9 4
-11 -5 -5 -10 6 -10 11 3 20 9 7 14 15 10 18 -3 4 -13 1 -22 -6 -14 -10 -14
-10 -4 4 7 9 10 19 6 22 -12 13 13 7 26 -5 11 -11 11 -9 0 9 -7 12 -16 20 -20
17 -4 -2 -11 1 -15 7 -4 7 -3 9 4 5 6 -3 13 -2 17 4 3 5 0 10 -7 10 -9 0 -9 3
2 10 10 6 11 10 3 10 -7 0 -13 5 -13 11 0 5 5 7 10 4 6 -3 10 -1 10 4 0 6 -8
11 -17 11 -14 0 -15 2 -5 9 8 4 14 12 15 17 1 5 6 8 10 6 5 -1 6 2 2 8 -3 6
-11 8 -16 5 -5 -4 -9 -1 -9 4 0 6 6 11 13 11 6 0 4 5 -6 11 -9 5 -23 7 -30 4
-6 -4 -4 0 5 8 10 8 15 17 11 20 -3 4 -1 7 6 7 8 0 11 -6 7 -17 -4 -10 -3 -14
1 -9 10 10 12 76 2 70 -4 -2 -9 1 -11 8 -6 17 3 59 11 54 4 -3 7 4 7 14 0 14
-3 16 -13 8 -11 -8 -12 -7 -7 7 5 13 4 16 -4 11 -7 -4 -12 -2 -12 3 0 6 8 11
18 11 16 1 16 2 -1 14 -10 8 -14 17 -8 20 5 3 11 1 13 -6 3 -9 6 -9 12 0 4 7
2 12 -4 12 -6 0 -8 4 -5 10 4 6 -1 7 -11 3 -14 -5 -15 -3 -5 15 8 15 8 22 1
22 -5 0 -10 9 -10 20 0 11 4 20 10 20 5 0 7 -8 4 -17 -5 -15 -4 -15 4 -3 14
19 6 30 -21 31 l-22 0 23 9 c28 12 28 20 0 13 -19 -4 -20 -3 -8 6 8 6 10 11 5
11 -6 0 -16 9 -23 21 -8 12 -10 19 -5 16 5 -3 14 6 20 20 12 25 12 25 -9 7
-21 -19 -21 -19 -9 3 15 29 14 33 -6 34 -15 0 -15 2 2 9 14 6 16 9 5 10 -8 2
-19 2 -23 1 -5 -1 -5 4 0 11 13 22 11 99 -4 105 -7 3 -13 9 -13 15 0 5 5 6 12
2 6 -4 8 -3 4 4 -3 5 0 13 6 16 7 3 2 3 -12 -1 -22 -5 -23 -4 -11 11 15 18 15
17 -14 35 -14 9 -15 11 -3 7 12 -3 15 -1 11 10 -3 9 -12 13 -22 10 -13 -5 -13
-3 2 8 15 12 16 14 2 20 -18 7 -20 27 -2 22 6 -1 9 -1 4 1 -4 3 -4 9 -1 15 4
5 -4 4 -17 -3 -21 -11 -22 -10 -12 2 15 19 5 62 -12 55 -8 -3 -12 2 -11 12 2
9 -4 28 -13 42 -10 14 -11 21 -3 17 7 -5 12 -3 12 3 0 6 5 8 12 4 7 -4 8 -3 4
5 -5 7 -16 9 -29 5 -20 -6 -20 -6 -4 10 22 22 21 27 0 20 -10 -3 -7 1 7 9 l25
15 -30 8 c-26 6 -27 8 -10 15 18 7 18 8 -3 8 -13 1 -20 5 -17 11 4 6 10 8 15
5 5 -3 12 -1 15 5 4 6 3 10 -2 9 -22 -4 -33 3 -32 19 0 10 3 12 6 5 2 -7 9
-13 14 -13 6 0 5 8 -1 20 -6 11 -16 18 -21 14 -7 -4 -7 1 0 14 8 15 8 23 -1
28 -6 4 -8 3 -5 -3 3 -5 0 -10 -8 -10 -13 0 -13 3 0 23 13 20 12 24 -2 36 -10
8 -14 8 -10 1 4 -6 4 -14 -1 -17 -4 -2 -8 6 -8 19 0 13 3 22 6 20 3 -2 6 5 6
15 0 14 -4 16 -12 9 -9 -8 -11 -5 -7 12 5 17 3 20 -8 14 -11 -6 -12 -5 -2 5
10 11 9 16 -4 25 -15 11 -28 59 -13 50 3 -2 6 7 6 20 0 13 -2 23 -5 23 -27 -2
-33 3 -21 17 16 19 11 24 -23 27 -14 1 -23 6 -21 10 3 4 12 4 21 1 15 -6 16
-5 3 9 -8 9 -19 13 -25 10 -5 -3 -3 3 5 13 9 11 10 16 3 11 -7 -4 -14 -2 -14
3 -1 6 -2 16 -3 22 0 7 -10 15 -21 20 -11 4 -15 8 -9 8 7 1 15 8 18 17 3 8 2
12 -4 9 -5 -3 -14 3 -20 14 -6 13 -17 18 -28 15 -10 -4 -13 -3 -6 3 6 4 13 23
16 40 4 28 2 31 -11 21 -9 -7 -13 -9 -9 -4 4 5 -1 19 -11 32 -11 14 -17 33
-14 44 3 12 0 20 -6 20 -7 0 -9 5 -6 10 3 6 -2 10 -12 11 -16 0 -16 1 2 9 18
8 19 9 1 9 -11 1 -16 6 -13 14 3 8 1 20 -5 28 -8 11 -9 11 -5 -2 3 -9 0 -16
-7 -16 -8 0 -11 10 -8 25 4 21 2 24 -13 18 -15 -5 -16 -4 -5 9 11 13 10 14 -6
8 -16 -6 -17 -5 -6 9 11 14 10 17 -7 23 -12 3 -21 10 -21 15 0 5 -8 11 -17 13
-16 4 -16 5 -2 6 9 0 20 8 23 17 3 8 2 12 -4 9 -5 -3 -19 -8 -29 -10 -14 -3
-18 1 -14 12 5 12 8 12 15 1 7 -9 8 -8 4 5 -3 10 -6 24 -6 30 0 7 -4 6 -10 -3
-8 -13 -10 -12 -10 3 0 9 5 17 12 17 20 0 -26 29 -47 30 -18 1 -18 2 3 10 27
12 29 20 2 13 -12 -3 -20 0 -20 6 0 7 5 9 12 5 7 -4 8 -3 4 5 -6 9 -11 9 -21
1 -12 -10 -13 -8 -10 10 4 19 2 20 -12 8 -15 -12 -15 -11 -5 9 17 30 15 38 -5
22 -14 -12 -16 -12 -8 0 6 11 4 13 -8 8 -19 -7 -32 8 -16 19 8 5 9 3 4 -6 -6
-9 -4 -11 5 -5 10 6 9 11 -6 21 -10 7 -24 18 -31 24 -7 5 -17 10 -22 10 -5 0
-13 5 -17 11 -4 8 1 9 17 4 13 -3 19 -3 13 2 -13 10 -28 45 -25 58 2 5 0 7 -4
3 -11 -11 -47 32 -41 49 5 13 4 14 -9 3 -18 -15 -19 -7 -4 22 6 11 7 18 2 15
-4 -3 -14 1 -20 9 -8 8 -9 15 -3 19 12 7 14 26 3 24 -28 -5 -35 1 -22 18 10
11 10 14 2 9 -8 -4 -13 -1 -13 9 0 9 -4 13 -10 10 -14 -9 -13 8 2 23 9 9 5 11
-20 8 -29 -3 -31 -2 -20 13 7 9 18 19 23 23 7 5 6 8 0 8 -6 0 -16 -5 -23 -12
-9 -9 -12 -8 -12 4 0 9 -7 19 -16 22 -9 3 -14 12 -11 19 3 8 -1 14 -9 14 -7 0
-11 -5 -8 -11 3 -6 -1 -3 -9 6 -8 10 -16 16 -19 13 -2 -3 -5 2 -6 10 -1 8 -3
21 -4 29 -1 8 -4 15 -7 14 -16 -1 -51 16 -51 24 0 6 -9 8 -20 5 -11 -3 -18 -2
-15 3 3 4 -2 13 -10 20 -7 6 -11 18 -8 26 4 10 0 12 -13 7 -17 -6 -18 -5 -4
12 14 17 14 18 -6 7 -20 -11 -22 -9 -20 18 1 16 0 28 -3 28 -24 -2 -40 4 -45
18 -6 15 -4 15 11 3 17 -12 17 -12 0 7 -15 16 -19 17 -28 4 -7 -11 -8 -8 -5
14 3 16 3 26 0 23 -9 -8 -44 25 -37 35 3 5 -4 12 -16 15 -12 3 -21 10 -21 15
0 5 -5 6 -12 2 -7 -4 -8 -3 -4 4 4 6 14 9 24 6 9 -3 6 2 -8 10 -14 8 -20 16
-15 16 6 0 2 5 -8 11 -9 5 -22 7 -29 3 -6 -4 -8 -3 -4 4 3 6 -2 15 -11 21 -10
6 -13 11 -8 11 6 0 17 -6 24 -12 11 -11 11 -9 0 9 -7 12 -19 19 -27 15 -10 -3
-13 -1 -8 6 4 7 3 12 -3 12 -5 0 -17 7 -25 16 -9 8 -16 11 -16 5 0 -6 -4 -11
-10 -11 -5 0 -6 7 -3 17 4 10 2 14 -4 10 -5 -4 -15 4 -21 18 -8 18 -17 22 -34
18 -19 -4 -20 -3 -8 7 12 10 11 11 -7 7 -16 -3 -23 0 -23 9 0 8 -5 14 -11 14
-5 0 -8 4 -5 8 3 4 -7 8 -22 8 -15 -1 -27 4 -27 9 0 21 -18 36 -38 33 -13 -2
-21 2 -19 10 1 6 -4 12 -10 12 -9 0 -8 4 2 11 12 8 10 9 -7 4 -19 -5 -23 -2
-23 17 0 18 -2 20 -10 8 -8 -12 -10 -12 -10 5 0 17 -2 17 -10 5 -9 -13 -10
-13 -11 0 -1 8 -1 19 0 24 1 5 -6 3 -15 -5 -16 -12 -17 -12 -11 3 4 13 2 15
-10 11 -12 -5 -14 -1 -8 18 3 13 3 19 -2 13 -10 -14 -42 -14 -40 0 1 6 -4 10
-11 8 -8 -1 -11 2 -7 8 3 5 1 10 -5 10 -6 0 -8 5 -5 10 5 9 -9 14 -18 8 -10
-8 -35 26 -30 39 5 12 3 14 -7 8 -10 -6 -12 -4 -6 10 5 14 4 16 -8 6 -11 -9
-15 -8 -20 4 -4 11 -2 14 7 9 6 -4 3 2 -8 13 -13 14 -22 16 -27 9 -5 -7 -8 -7
-8 2 0 8 -5 10 -12 6 -9 -5 -8 -2 1 9 12 15 12 17 -4 11 -13 -5 -16 -4 -11 4
10 16 -6 15 -23 0 -11 -11 -12 -10 -6 1 6 11 4 13 -8 8 -11 -4 -14 -2 -10 9 3
7 0 14 -7 14 -6 0 -8 4 -5 10 4 6 -1 7 -11 3 -12 -4 -15 -3 -10 5 5 8 1 10
-10 5 -13 -5 -16 -2 -11 9 4 12 1 14 -14 11 -11 -3 -19 0 -19 6 0 7 -5 9 -12
5 -10 -6 -10 -5 -1 7 10 13 10 16 -2 16 -8 0 -15 -5 -15 -11 0 -6 -5 -3 -11 7
-5 9 -15 17 -20 17 -6 0 -7 -5 -3 -12 4 -7 3 -8 -5 -4 -9 6 -9 11 -1 21 9 11
7 12 -8 8 -13 -3 -26 4 -40 24 -11 16 -31 29 -43 30 -13 1 -25 7 -27 12 -2 5
-10 7 -18 4 -8 -3 -14 0 -14 6 0 6 -7 8 -17 4 -12 -5 -14 -3 -8 7 6 10 4 11
-6 4 -23 -14 -40 -13 -46 2 -3 8 -10 11 -15 8 -6 -4 -8 2 -3 17 3 13 3 20 -2
14 -14 -17 -47 -41 -40 -28 4 6 1 18 -7 26 -8 8 -12 19 -8 23 4 5 1 4 -7 -3
-11 -9 -18 -7 -34 8 -12 11 -27 17 -34 15 -7 -3 -13 -1 -13 5 0 6 -7 8 -15 5
-11 -4 -15 0 -13 12 2 13 -4 17 -24 16 -21 -1 -26 3 -23 18 4 16 2 18 -10 8
-12 -10 -15 -10 -15 2 0 8 -7 15 -15 15 -8 0 -15 -5 -15 -10 0 -6 -3 -7 -6 -4
-4 4 -1 14 7 23 12 15 11 16 -9 10 -14 -5 -22 -3 -22 4 0 7 -7 10 -15 6 -10
-3 -15 1 -16 12 0 14 -2 14 -9 -3 -8 -19 -11 -18 -14 4 0 5 -5 13 -10 18 -5 5
-6 3 -2 -4 11 -19 -5 -16 -21 5 -8 9 -12 12 -9 5 4 -6 1 -15 -5 -19 -7 -4 -9
-3 -6 2 3 6 2 16 -4 24 -7 13 -9 13 -9 1 0 -11 -4 -10 -16 5 -8 10 -13 14 -10
7 4 -6 2 -15 -4 -18 -6 -4 -10 -3 -9 2 4 24 -1 37 -12 26 -11 -11 -49 -6 -49
7 0 4 -7 11 -16 14 -14 5 -15 4 -4 -9 11 -13 10 -14 -4 -9 -9 3 -16 10 -16 15
0 5 -14 9 -31 9 -21 0 -28 4 -23 13 5 7 0 6 -11 -3 -11 -9 -16 -10 -11 -2 5 8
-1 12 -18 13 -41 2 -44 3 -58 19 -11 12 -11 12 4 2 12 -10 18 -10 24 -1 4 7 3
9 -4 5 -6 -3 -13 -2 -17 4 -4 6 -12 7 -23 1 -10 -6 -23 -4 -39 6 -13 8 -23 11
-23 7 0 -5 -4 -3 -9 4 -4 7 -14 14 -22 15 -8 2 -20 7 -28 11 -10 6 -12 5 -7
-2 5 -8 2 -10 -8 -6 -9 3 -16 10 -16 15 0 5 -5 9 -11 9 -5 0 -7 -4 -4 -10 3
-6 -1 -7 -9 -4 -9 3 -16 11 -16 16 0 6 -8 4 -17 -3 -9 -8 -14 -9 -11 -4 3 6 0
16 -8 23 -11 10 -14 10 -14 0 0 -9 -3 -9 -10 2 -5 8 -10 11 -10 6 0 -5 -8 -2
-17 5 -9 8 -14 9 -10 2 5 -7 0 -9 -13 -6 -11 3 -17 10 -13 17 4 6 -1 5 -10 -3
-14 -11 -20 -11 -32 -1 -8 7 -12 17 -8 24 4 6 0 5 -9 -2 -13 -10 -17 -10 -20
0 -4 11 -8 11 -20 0 -13 -10 -17 -10 -21 3 -4 8 -13 12 -22 9 -8 -3 -12 -11
-8 -18 3 -6 -3 -3 -14 7 -21 18 -22 18 -33 0 -9 -14 -10 -14 -6 -1 7 23 -2 28
-30 18 -20 -8 -24 -6 -24 8 0 13 -2 14 -9 3 -5 -8 -11 -9 -15 -3 -3 6 -15 8
-26 5 -11 -3 -17 -10 -13 -16 4 -6 1 -7 -8 -1 -20 12 -51 16 -45 5 7 -11 -20
-8 -31 4 -4 4 -2 5 6 0 10 -5 12 -4 7 4 -4 6 -12 9 -17 6 -5 -4 -18 -8 -30
-10 -18 -4 -19 -2 -8 11 11 13 9 14 -15 3 -17 -8 -30 -9 -34 -3 -4 5 -23 9
-42 9 -20 0 -45 8 -60 20 -19 16 -22 16 -11 2 19 -25 7 -32 -15 -10 -15 15
-33 19 -86 19 -36 -1 -64 2 -62 6 3 4 -4 11 -13 17 -13 7 -23 5 -37 -7 -13
-11 -16 -12 -11 -3 6 11 3 13 -13 9 -12 -4 -20 -2 -16 3 8 13 -10 11 -24 -3
-7 -7 -12 -8 -12 -2 0 6 -7 11 -15 11 -8 0 -15 -4 -15 -8 0 -4 -14 -3 -32 2
-22 6 -34 5 -39 -2 -4 -7 -9 -7 -12 -2 -7 11 -36 11 -54 0 -6 -4 -15 -2 -19 4
-5 8 -9 7 -14 -2 -7 -10 -12 -10 -23 0 -13 10 -18 8 -32 -11 l-17 -23 7 23 c7
25 5 27 -12 8z m2401 -617 c-3 -5 -10 -7 -15 -3 -5 3 -7 10 -3 15 3 5 10 7 15
3 5 -3 7 -10 3 -15z m-5058 -211 c4 -7 4 -10 -1 -6 -4 4 -15 2 -24 -5 -14 -11
-14 -10 -2 6 16 20 18 21 27 5z m-220 -140 c4 -7 3 -8 -4 -4 -7 4 -12 2 -12
-5 0 -7 -3 -10 -6 -6 -6 5 3 27 11 27 2 0 7 -5 11 -12z m6077 -232 c4 -10 1
-13 -8 -9 -8 3 -12 9 -9 14 7 12 11 11 17 -5z m204 -202 c-3 -3 -12 -4 -19 -1
-8 3 -5 6 6 6 11 1 17 -2 13 -5z m-6834 -48 c4 -10 1 -13 -8 -9 -8 3 -12 9 -9
14 7 12 11 11 17 -5z m7087 -221 c7 -9 8 -15 2 -15 -5 0 -12 7 -16 15 -3 8 -4
15 -2 15 2 0 9 -7 16 -15z m-7480 -263 c0 -4 -10 -13 -22 -21 -23 -14 -23 -14
-4 8 20 22 26 25 26 13z m7742 -127 c7 -12 7 -16 0 -11 -6 3 -13 0 -16 -6 -3
-7 -3 -2 0 11 4 15 2 21 -4 17 -6 -3 -13 -2 -16 3 -4 5 1 8 10 7 9 -1 21 -11
26 -21z m183 -224 c3 -5 0 -13 -6 -17 -7 -4 -9 -3 -5 4 3 5 0 13 -6 15 -9 4
-10 6 -1 6 6 1 14 -3 18 -8z m-8391 -446 c-4 -8 -11 -15 -16 -15 -6 0 -5 6 2
15 7 8 14 15 16 15 2 0 1 -7 -2 -15z m8713 -171 c-3 -3 -12 -4 -19 -1 -8 3 -5
6 6 6 11 1 17 -2 13 -5z m17 -42 c3 -5 -1 -9 -9 -9 -8 0 -12 4 -9 9 3 4 7 8 9
8 2 0 6 -4 9 -8z m203 -688 c-3 -3 -12 -4 -19 -1 -8 3 -5 6 6 6 11 1 17 -2 13
-5z m20 -77 c0 -8 -6 -14 -14 -14 -17 0 -17 14 0 20 6 3 12 6 13 6 0 1 1 -5 1
-12z m83 -533 c0 -8 -19 -13 -24 -6 -3 5 1 9 9 9 8 0 15 -2 15 -3z m35 -594
c-3 -5 -12 -10 -18 -10 -7 0 -6 4 3 10 19 12 23 12 15 0z m-20 -341 c-4 -5
-12 -9 -18 -8 -9 0 -8 2 1 6 6 2 9 10 6 15 -4 7 -2 8 5 4 6 -4 9 -12 6 -17z
m-2 -54 c-3 -9 -8 -14 -10 -11 -3 3 -2 9 2 15 9 16 15 13 8 -4z m-9363 -539
c0 -2 -7 -7 -16 -10 -8 -3 -12 -2 -9 4 6 10 25 14 25 6z m15 -156 c-3 -5 -12
-10 -18 -10 -7 0 -6 4 3 10 19 12 23 12 15 0z m9210 -280 c3 -6 -1 -7 -9 -4
-18 7 -21 14 -7 14 6 0 13 -4 16 -10z m-74 -103 c-10 -9 -11 -8 -5 6 3 10 9
15 12 12 3 -3 0 -11 -7 -18z m-16 -128 c-4 -5 -12 -9 -18 -8 -9 0 -8 2 1 6 6
2 9 10 6 15 -4 7 -2 8 5 4 6 -4 9 -12 6 -17z m-8921 -225 c5 -14 4 -15 -9 -4
-17 14 -19 20 -6 20 5 0 12 -7 15 -16z m8821 -34 c-3 -5 -1 -10 6 -10 7 0 10
-3 6 -6 -9 -9 -28 6 -22 17 4 5 8 9 11 9 3 0 2 -4 -1 -10z m-8805 -20 c0 -5
-2 -10 -4 -10 -3 0 -8 5 -11 10 -3 6 -1 10 4 10 6 0 11 -4 11 -10z m8579 -396
c-6 -8 -17 -14 -23 -14 -6 0 -4 5 4 10 13 9 13 10 0 10 -13 0 -13 2 0 9 20 13
34 2 19 -15z m-8435 -30 c3 -8 2 -12 -4 -9 -6 3 -10 10 -10 16 0 14 7 11 14
-7z m-27 -10 c-3 -3 -12 -4 -19 -1 -8 3 -5 6 6 6 11 1 17 -2 13 -5z m109 -100
c1 -9 0 -13 -4 -10 -3 4 -7 14 -8 22 -1 9 0 13 4 10 3 -4 7 -14 8 -22z m24
-24 c0 -5 -8 -10 -17 -10 -15 0 -16 2 -3 10 19 12 20 12 20 0z m80 -120 c0 -5
-5 -10 -11 -10 -5 0 -7 5 -4 10 3 6 8 10 11 10 2 0 4 -4 4 -10z m8080 0 c0 -5
-5 -10 -11 -10 -5 0 -7 5 -4 10 3 6 8 10 11 10 2 0 4 -4 4 -10z m-8000 -91 c0
-5 4 -8 8 -5 5 3 9 -1 9 -9 0 -19 0 -19 -22 5 -10 11 -13 20 -7 20 7 0 12 -5
12 -11z m277 -344 c0 -8 -4 -12 -9 -9 -5 3 -6 10 -3 15 9 13 12 11 12 -6z
m7331 -115 c-15 -24 -25 -26 -25 -5 0 8 4 12 9 9 4 -3 8 0 8 5 0 6 5 11 10 11
6 0 5 -8 -2 -20z m-148 -150 c0 -5 -5 -10 -11 -10 -5 0 -7 5 -4 10 3 6 8 10
11 10 2 0 4 -4 4 -10z m-6840 -60 c0 -5 -2 -10 -4 -10 -3 0 -8 5 -11 10 -3 6
-1 10 4 10 6 0 11 -4 11 -10z m6720 -94 c0 -3 -4 -8 -10 -11 -5 -3 -10 -1 -10
4 0 6 5 11 10 11 6 0 10 -2 10 -4z m-6492 -30 c-7 -8 -15 -12 -17 -11 -5 6 10
25 20 25 5 0 4 -6 -3 -14z m52 -68 c11 -12 20 -26 20 -32 0 -6 -7 -1 -15 11
-9 13 -23 27 -33 32 -9 6 -12 11 -5 11 7 0 21 -10 33 -22z m6340 -8 c0 -5 -5
-10 -11 -10 -5 0 -7 5 -4 10 3 6 8 10 11 10 2 0 4 -4 4 -10z m-66 -66 c3 -8 2
-12 -4 -9 -6 3 -10 10 -10 16 0 14 7 11 14 -7z m-6079 -114 c4 -6 10 -8 14 -6
4 3 8 -1 8 -9 0 -19 -3 -19 -27 5 -11 11 -16 20 -11 20 6 0 13 -5 16 -10z
m5948 2 c4 9 6 9 6 1 2 -20 -16 -24 -30 -5 -13 15 -12 16 3 4 13 -10 17 -10
21 0z m-5759 -120 c3 -5 -1 -9 -9 -9 -8 0 -12 4 -9 9 3 4 7 8 9 8 2 0 6 -4 9
-8z m5506 -116 c0 -3 -4 -8 -10 -11 -5 -3 -10 -1 -10 4 0 6 5 11 10 11 6 0 10
-2 10 -4z m-5270 -61 c0 -2 -9 -3 -19 -2 -11 0 -18 5 -15 9 4 6 34 0 34 -7z
m100 -83 c0 -15 -2 -15 -10 -2 -13 20 -13 33 0 25 6 -3 10 -14 10 -23z m25 -2
c-3 -5 -1 -10 6 -10 7 0 10 -3 6 -6 -9 -9 -28 6 -22 17 4 5 8 9 11 9 3 0 2 -4
-1 -10z m95 -54 c0 -2 -7 -7 -16 -10 -8 -3 -12 -2 -9 4 6 10 25 14 25 6z m69
-46 c-6 -5 -18 -6 -26 -3 -19 8 -16 11 13 11 17 0 22 -3 13 -8z m131 -45 c0
-5 5 -3 10 5 7 12 9 10 8 -7 -2 -19 -4 -20 -23 -7 -12 8 -25 11 -28 7 -4 -3
-7 -1 -7 5 0 6 9 10 20 9 11 -1 20 -6 20 -12z m4343 -26 c-8 -8 -13 -7 -18 2
-5 8 -4 10 3 5 7 -4 12 -2 12 5 0 7 3 9 7 6 4 -4 2 -12 -4 -18z m-3953 -71 c0
-4 -4 -8 -9 -8 -6 0 -12 4 -15 8 -3 5 1 9 9 9 8 0 15 -4 15 -9z m125 -30 c5 4
5 1 1 -6 -6 -10 -11 -10 -22 -1 -8 6 -14 14 -14 16 0 3 6 0 13 -6 8 -6 18 -7
22 -3z m-55 -34 c0 -3 -7 -1 -15 6 -8 7 -15 17 -15 22 0 5 7 3 15 -6 8 -8 15
-18 15 -22z m120 -24 c-6 -11 -13 -20 -16 -20 -2 0 0 9 6 20 6 11 13 20 16 20
2 0 0 -9 -6 -20z m3277 -36 c-3 -3 -12 -4 -19 -1 -8 3 -5 6 6 6 11 1 17 -2 13
-5z m-3117 -44 c0 -5 -7 -7 -15 -4 -8 4 -15 8 -15 10 0 2 7 4 15 4 8 0 15 -4
15 -10z m2912 -52 c-6 -6 -22 -13 -34 -15 -18 -2 -19 -1 -8 6 8 5 17 8 21 5 4
-2 10 0 14 6 3 5 9 10 13 10 3 0 1 -5 -6 -12z m-2730 -23 c10 6 10 5 2 -4 -14
-15 -41 -5 -41 16 0 14 2 13 13 -2 8 -10 18 -14 26 -10z m58 -18 c0 -8 -7 -14
-15 -14 -11 0 -12 4 -4 14 6 7 13 13 15 13 2 0 4 -6 4 -13z m260 -87 c0 -5 -2
-10 -4 -10 -3 0 -8 5 -11 10 -3 6 -1 10 4 10 6 0 11 -4 11 -10z m387 -35 c0
-8 -4 -12 -9 -9 -5 3 -6 10 -3 15 9 13 12 11 12 -6z m169 -4 c2 -7 0 -7 -3 -1
-3 7 -9 8 -17 1 -9 -8 -13 -7 -13 3 0 17 30 14 33 -3z m924 -27 c0 -8 -19 -13
-24 -6 -3 5 1 9 9 9 8 0 15 -2 15 -3z m-287 -19 c-3 -9 -8 -14 -10 -11 -3 3
-2 9 2 15 9 16 15 13 8 -4z m128 -2 c13 -16 12 -17 -3 -4 -10 7 -18 15 -18 17
0 8 8 3 21 -13z m-51 -3 c0 -5 -2 -10 -4 -10 -3 0 -8 5 -11 10 -3 6 -1 10 4
10 6 0 11 -4 11 -10z"/>
<path d="M5950 9540 c0 -5 5 -10 11 -10 5 0 7 5 4 10 -3 6 -8 10 -11 10 -2 0
-4 -4 -4 -10z"/>
<path d="M7247 9019 c7 -7 15 -10 18 -7 3 3 -2 9 -12 12 -14 6 -15 5 -6 -5z"/>
<path d="M7595 8770 c-3 -5 -1 -10 4 -10 6 0 11 5 11 10 0 6 -2 10 -4 10 -3 0
-8 -4 -11 -10z"/>
<path d="M1485 8320 c-3 -6 1 -7 9 -4 18 7 21 14 7 14 -6 0 -13 -4 -16 -10z"/>
<path d="M8395 8059 c-8 -12 0 -22 20 -25 8 -1 13 2 9 7 -3 5 -10 6 -16 3 -7
-5 -9 -1 -5 9 7 19 2 23 -8 6z"/>
<path d="M9095 7051 c-3 -5 2 -17 11 -25 22 -22 31 -20 11 2 -10 10 -14 22
-10 25 3 4 4 7 0 7 -3 0 -8 -4 -12 -9z"/>
<path d="M9144 6939 c-4 -7 -3 -9 4 -5 5 3 13 0 15 -6 4 -9 6 -10 6 -1 1 17
-16 25 -25 12z"/>
<path d="M9265 6651 c-6 -11 13 -26 22 -17 4 3 1 6 -6 6 -7 0 -9 5 -6 10 3 6
4 10 1 10 -3 0 -7 -4 -11 -9z"/>
<path d="M9386 6235 c4 -8 11 -15 16 -15 6 0 5 6 -2 15 -7 8 -14 15 -16 15 -2
0 -1 -7 2 -15z"/>
<path d="M9493 5865 c0 -8 4 -12 9 -9 4 3 8 9 8 15 0 5 -4 9 -8 9 -5 0 -9 -7
-9 -15z"/>
<path d="M9521 5751 c-8 -5 -9 -11 -3 -15 5 -3 12 1 16 9 6 17 6 18 -13 6z"/>
<path d="M9575 5050 c-3 -6 1 -7 9 -4 18 7 21 14 7 14 -6 0 -13 -4 -16 -10z"/>
<path d="M43 4935 c0 -8 4 -12 9 -9 5 3 6 10 3 15 -9 13 -12 11 -12 -6z"/>
<path d="M9586 4711 c-4 -5 -2 -12 3 -15 5 -4 12 -2 15 3 4 5 2 12 -3 15 -5 4
-12 2 -15 -3z"/>
<path d="M9510 3669 c0 -5 5 -7 10 -4 6 3 10 8 10 11 0 2 -4 4 -10 4 -5 0 -10
-5 -10 -11z"/>
<path d="M9449 3508 c-1 -2 -3 -13 -4 -25 -2 -16 2 -20 13 -15 11 4 12 7 4 10
-10 3 -10 7 -1 18 8 10 8 14 0 14 -6 0 -12 -1 -12 -2z"/>
<path d="M9206 2852 c-3 -5 1 -9 9 -9 8 0 15 4 15 9 0 4 -4 8 -9 8 -6 0 -12
-4 -15 -8z"/>
<path d="M9065 2651 c-3 -5 -2 -12 3 -15 5 -3 9 1 9 9 0 17 -3 19 -12 6z"/>
<path d="M470 2616 c0 -2 8 -10 18 -17 15 -13 16 -12 3 4 -13 16 -21 21 -21
13z"/>
<path d="M8941 2406 c-9 -11 -9 -16 0 -22 7 -4 9 -3 5 4 -3 6 2 15 11 21 10 6
13 11 7 11 -6 0 -17 -6 -23 -14z"/>
<path d="M8915 2330 c3 -5 8 -10 11 -10 2 0 4 5 4 10 0 6 -5 10 -11 10 -5 0
-7 -4 -4 -10z"/>
<path d="M703 2259 c-2 -23 3 -25 10 -4 4 8 3 16 -1 19 -4 3 -9 -4 -9 -15z"/>
<path d="M8740 2067 c0 -2 6 -10 14 -16 11 -9 16 -9 22 1 4 7 4 10 -1 6 -4 -4
-14 -3 -22 3 -7 6 -13 9 -13 6z"/>
<path d="M1035 1899 c-5 -7 -4 -10 3 -5 6 3 13 -2 16 -11 3 -10 16 -24 28 -32
22 -13 22 -12 -2 15 -14 16 -28 33 -31 37 -4 5 -10 3 -14 -4z"/>
<path d="M8590 1835 c-11 -13 -10 -14 4 -9 9 3 16 10 16 15 0 13 -6 11 -20 -6z"/>
<path d="M8285 1510 c-3 -5 -2 -10 4 -10 5 0 13 5 16 10 3 6 2 10 -4 10 -5 0
-13 -4 -16 -10z"/>
<path d="M8185 1359 c-11 -16 -1 -19 13 -3 7 8 8 14 3 14 -5 0 -13 -5 -16 -11z"/>
<path d="M1788 1213 c6 -2 10 -8 8 -12 -3 -4 1 -8 9 -8 11 0 12 4 4 14 -6 7
-17 13 -23 12 -7 0 -6 -2 2 -6z"/>
<path d="M7991 1178 c-13 -20 -12 -22 1 -11 8 7 18 10 22 6 4 -4 4 0 0 10 -8
21 -6 21 -23 -5z"/>
<path d="M1910 1086 c0 -2 8 -10 18 -17 15 -13 16 -12 3 4 -13 16 -21 21 -21
13z"/>
<path d="M7795 1040 c-3 -5 -1 -10 4 -10 6 0 11 5 11 10 0 6 -2 10 -4 10 -3 0
-8 -4 -11 -10z"/>
<path d="M7760 1010 c-13 -24 -13 -30 0 -30 6 0 9 3 9 8 -4 21 3 31 16 26 8
-4 15 -4 15 -1 0 16 -31 14 -40 -3z"/>
<path d="M7171 586 c-9 -11 -9 -16 0 -22 7 -4 9 -3 5 4 -3 5 0 12 6 15 7 2 10
7 7 11 -3 4 -12 0 -18 -8z"/>
<path d="M2997 535 c-4 -8 -3 -16 1 -19 4 -3 9 4 9 15 2 23 -3 25 -10 4z"/>
<path d="M6995 470 c-3 -5 -1 -10 4 -10 6 0 11 5 11 10 0 6 -2 10 -4 10 -3 0
-8 -4 -11 -10z"/>
<path d="M6790 431 c0 -6 4 -13 10 -16 6 -3 7 1 4 9 -7 18 -14 21 -14 7z"/>
<path d="M3419 343 c-13 -16 -12 -17 4 -4 9 7 17 15 17 17 0 8 -8 3 -21 -13z"/>
<path d="M3631 244 c0 -11 3 -14 6 -6 3 7 2 16 -1 19 -3 4 -6 -2 -5 -13z"/>
<path d="M4116 118 c3 -5 10 -6 15 -3 13 9 11 12 -6 12 -8 0 -12 -4 -9 -9z"/>
<path d="M4341 94 c0 -11 3 -14 6 -6 3 7 2 16 -1 19 -3 4 -6 -2 -5 -13z"/>
<path d="M4466 87 c3 -10 9 -15 12 -12 3 3 0 11 -7 18 -10 9 -11 8 -5 -6z"/>
<path d="M4736 72 c-3 -5 1 -9 9 -9 8 0 12 4 9 9 -3 4 -7 8 -9 8 -2 0 -6 -4
-9 -8z"/>
<path d="M5413 46 c-3 -6 -3 -8 2 -4 4 4 13 3 20 -2 8 -7 12 -5 12 3 0 16 -25
18 -34 3z"/>
<path d="M5146 41 c-4 -5 3 -7 14 -4 23 6 26 13 6 13 -8 0 -17 -4 -20 -9z"/>
</g>
</svg>
